<?xml version="1.0" encoding="UTF-8"?>
<svg width="641px" height="163px" viewBox="0 0 641 163" version="1.1" xmlns="http://www.w3.org/2000/svg" xmlns:xlink="http://www.w3.org/1999/xlink">
    <!-- Generator: Sketch 43.2 (39069) - http://www.bohemiancoding.com/sketch -->
    <title>Group 2</title>
    <desc>Created with Sketch.</desc>
    <defs>
        <text id="text-1" font-family="DopeScript, Dope Script" font-size="144" font-weight="normal" letter-spacing="2.02222228">
            <tspan x="168.656" y="137">Kart Kids</tspan>
        </text>
        <filter x="-1.4%" y="-3.2%" width="102.8%" height="108.7%" filterUnits="objectBoundingBox" id="filter-2">
            <feOffset dx="0" dy="2" in="SourceAlpha" result="shadowOffsetOuter1"></feOffset>
            <feGaussianBlur stdDeviation="2" in="shadowOffsetOuter1" result="shadowBlurOuter1"></feGaussianBlur>
            <feColorMatrix values="0 0 0 0 0   0 0 0 0 0   0 0 0 0 0  0 0 0 0.5 0" type="matrix" in="shadowBlurOuter1"></feColorMatrix>
        </filter>
    </defs>
    <g id="Page-1" stroke="none" stroke-width="1" fill="none" fill-rule="evenodd">
        <g id="Desktop-HD" transform="translate(-386.000000, -220.000000)">
            <g id="Group-2" transform="translate(386.000000, 185.000000)">
                <g id="rigth_flag" transform="translate(64.500000, 107.268267) scale(-1, 1) translate(-64.500000, -107.268267) translate(0.000000, 46.000000)" fill-rule="nonzero" fill="#FFFFFF">
                    <path d="M45.0185762,32.3601482 C43.4800021,36.523428 41.941428,40.6867077 40.4025846,44.8505261 C43.9669165,47.8571148 47.7932881,49.8718309 52.4065866,50.7565177 C53.9451608,46.593238 55.4837349,42.4299582 57.022309,38.2672171 C52.4090104,37.3784906 48.5831775,35.3694301 45.0185762,32.3601482 Z" id="Shape"></path>
                    <path d="M99.7657453,37.8382046 C101.176666,34.0199123 102.587587,30.2026973 103.998507,26.3852129 C99.3009144,25.6273716 94.714547,25.6319499 89.9749415,25.9222672 C88.5642902,29.7400209 87.1528309,33.5580438 85.7421795,37.3752589 C90.4823236,37.0846722 95.0684217,37.0809019 99.7657453,37.8382046 Z" id="Shape"></path>
                    <path d="M31.5546388,68.7922797 C35.1178935,71.8004843 38.9456117,73.8125073 43.5583716,74.69881 C44.9692923,70.8810564 46.3802129,67.0633027 47.7911336,63.2460877 C43.1775658,62.359785 39.3517328,60.3474927 35.7871315,57.3392881 C34.3762109,61.1567724 32.9652902,64.9747954 31.5546388,68.7922797 Z" id="Shape"></path>
                    <path d="M98.3055407,80.1760585 C99.7161921,76.3588434 101.127382,72.5410898 102.538303,68.7238747 C98.9734322,65.7162088 95.1481378,63.7044551 90.5345699,62.8170752 C89.1236493,66.6350981 87.7124593,70.4528518 86.3015386,74.2700668 C90.9148372,75.1558309 94.7414781,77.1683925 98.3055407,80.1760585 Z" id="Shape"></path>
                    <path d="M57.582476,75.1617557 C62.4863612,74.7653299 67.3738184,74.2030084 72.2779729,73.8073904 C73.6886242,69.9896367 75.0998142,66.1713445 76.5107349,62.3538601 C71.6068497,62.7505553 66.7193925,63.3131461 61.815238,63.7087641 C60.4043173,67.5257098 58.9933967,71.3434635 57.582476,75.1617557 Z" id="Shape"></path>
                    <path d="M95.1505616,50.3275052 C99.7635908,51.2143466 103.589693,53.2258309 107.153756,56.2340355 C108.693138,52.0712944 110.231712,47.907476 111.770017,43.7441962 C108.204877,40.7365303 104.379582,38.7255846 99.7660146,37.8382046 C98.2274405,42.0014843 96.6885971,46.1647641 95.1505616,50.3275052 Z" id="Shape"></path>
                    <path d="M52.4068559,50.7565177 C50.8685511,54.9192589 49.3294384,59.0830772 47.7911336,63.2458184 C52.4884572,64.0033904 57.0756326,63.9990814 61.8149687,63.7087641 C63.3538121,59.5454843 64.8923862,55.3822046 66.4309603,51.2189248 C61.6908163,51.5097808 57.1044489,51.5143591 52.4068559,50.7565177 Z" id="Shape"></path>
                    <path d="M71.0466827,38.7293549 C72.4576033,34.9116013 73.8687933,31.0938476 75.2794447,27.2769019 C70.5395699,27.5677578 65.9526639,27.5720668 61.2556096,26.8144948 C59.8446889,30.6317098 58.4337683,34.4494635 57.0228476,38.2669478 C61.7207098,39.0239812 66.306,39.0194029 71.0466827,38.7293549 Z" id="Shape"></path>
                    <path d="M81.1264572,49.8648288 C79.5878831,54.0275699 78.0490397,58.1908497 76.5104656,62.3535908 C81.2506096,62.0638121 85.8367077,62.0589645 90.5340313,62.8170752 C92.0726054,58.6537954 93.6111795,54.4910543 95.1502923,50.3277745 C90.4524301,49.5699332 85.8666013,49.5750501 81.1264572,49.8648288 Z" id="Shape"></path>
                    <path d="M81.1264572,49.8648288 C82.6650313,45.7015491 84.2036054,41.5382693 85.7421795,37.3755282 C80.8380251,37.7716848 75.9505678,38.3334676 71.0466827,38.7293549 C69.5081086,42.892096 67.9695344,47.0559144 66.4309603,51.2186555 C71.3348455,50.8233069 76.2220334,50.2607161 81.1264572,49.8648288 Z" id="Shape"></path>
                    <path d="M106.837046,14.4172985 C104.395741,13.9966347 101.811701,13.7924969 98.9370752,13.7924969 C94.8292735,13.7924969 90.7459791,14.2126221 86.797071,14.6187432 C86.0139144,14.6992672 85.232643,14.7797912 84.4540647,14.8565449 L83.4290668,14.9580752 C79.8127578,15.3178747 76.0733737,15.6897933 72.4640668,15.6897933 C69.3163591,15.6900626 66.5895846,15.4064781 64.1267349,14.8234196 C57.6729645,13.2958873 52.8784196,9.17892902 49.0377745,1.86659499 C48.4197056,0.689436326 47.1660626,-0.0129269311 45.8397056,0.0727139875 C44.51281,0.158624217 43.3609666,1.01772651 42.8999061,2.26490605 L0.209524008,117.777269 C-0.43493737,119.521328 0.456482255,121.457405 2.2002714,122.101866 C2.58511691,122.244063 2.979119,122.31166 3.36692693,122.31166 C4.73583507,122.31166 6.02260334,121.470332 6.52513779,120.111119 L22.684071,76.3873904 C27.4608413,81.3728768 34.3045741,85.2288727 38.6025094,86.2455219 C41.5805511,86.9500397 44.8155157,87.2928727 48.4926889,87.2928727 C52.4407891,87.2928727 56.353071,86.9037182 60.1363528,86.5266827 L61.1411524,86.4270376 C61.9245783,86.3500146 62.7106973,86.2686827 63.4987015,86.1873507 C67.2822526,85.7979269 71.1942651,85.3953069 74.9603111,85.3953069 C77.4487453,85.3953069 79.6600585,85.5679353 81.7208267,85.9228873 C89.0848685,87.1913424 94.4228831,91.4157557 98.5201816,99.2171587 C99.1382505,100.394048 100.390008,101.094795 101.718251,101.01104 C103.045146,100.925129 104.19699,100.066027 104.65805,98.8188476 L128.632121,33.947737 C128.963104,33.0530856 128.8982,32.0598664 128.454645,31.2153069 C123.373823,21.543 116.302791,16.047977 106.837046,14.4172985 Z M100.693522,90.1227933 C96.0538309,84.1101545 90.1728852,80.5466305 82.8632443,79.2881399 C80.4211315,78.867476 77.8357453,78.6630689 74.9597724,78.6630689 C70.8484697,78.6630689 66.761405,79.0837328 62.8087265,79.4906618 C62.0298789,79.5709165 61.2529165,79.6511712 60.4791858,79.7273862 L59.469,79.8275699 C55.84919,80.1879081 52.1060355,80.5606347 48.4921503,80.5606347 C45.3436347,80.5606347 42.6155136,80.2770501 40.1521253,79.694261 C36.2298789,78.7664843 28.6231879,73.9714008 25.3857996,69.0747871 L46.8587787,10.9738873 C51.064071,16.4551754 56.2510021,19.878119 62.5757724,21.3752192 C65.5532756,22.0800063 68.7877015,22.4228392 72.4640668,22.4225699 C76.4075887,22.4225699 80.3158309,22.0339541 84.0950731,21.6579958 L85.1144154,21.5567349 C85.9024196,21.4791733 86.6928476,21.3978413 87.4859687,21.3159708 C91.2654802,20.9273549 95.174261,20.5247349 98.9368058,20.5247349 C101.424163,20.5247349 103.634668,20.6973633 105.69409,21.0517766 C112.64043,22.2483257 117.784541,26.0749666 121.784349,33.0533549 L100.693522,90.1227933 Z" id="Shape"></path>
                </g>
                <g id="rigth_flag-copy" transform="translate(512.000000, 47.000000)" fill-rule="nonzero" fill="#FFFFFF">
                    <path d="M45.0185762,32.3601482 C43.4800021,36.523428 41.941428,40.6867077 40.4025846,44.8505261 C43.9669165,47.8571148 47.7932881,49.8718309 52.4065866,50.7565177 C53.9451608,46.593238 55.4837349,42.4299582 57.022309,38.2672171 C52.4090104,37.3784906 48.5831775,35.3694301 45.0185762,32.3601482 Z" id="Shape"></path>
                    <path d="M99.7657453,37.8382046 C101.176666,34.0199123 102.587587,30.2026973 103.998507,26.3852129 C99.3009144,25.6273716 94.714547,25.6319499 89.9749415,25.9222672 C88.5642902,29.7400209 87.1528309,33.5580438 85.7421795,37.3752589 C90.4823236,37.0846722 95.0684217,37.0809019 99.7657453,37.8382046 Z" id="Shape"></path>
                    <path d="M31.5546388,68.7922797 C35.1178935,71.8004843 38.9456117,73.8125073 43.5583716,74.69881 C44.9692923,70.8810564 46.3802129,67.0633027 47.7911336,63.2460877 C43.1775658,62.359785 39.3517328,60.3474927 35.7871315,57.3392881 C34.3762109,61.1567724 32.9652902,64.9747954 31.5546388,68.7922797 Z" id="Shape"></path>
                    <path d="M98.3055407,80.1760585 C99.7161921,76.3588434 101.127382,72.5410898 102.538303,68.7238747 C98.9734322,65.7162088 95.1481378,63.7044551 90.5345699,62.8170752 C89.1236493,66.6350981 87.7124593,70.4528518 86.3015386,74.2700668 C90.9148372,75.1558309 94.7414781,77.1683925 98.3055407,80.1760585 Z" id="Shape"></path>
                    <path d="M57.582476,75.1617557 C62.4863612,74.7653299 67.3738184,74.2030084 72.2779729,73.8073904 C73.6886242,69.9896367 75.0998142,66.1713445 76.5107349,62.3538601 C71.6068497,62.7505553 66.7193925,63.3131461 61.815238,63.7087641 C60.4043173,67.5257098 58.9933967,71.3434635 57.582476,75.1617557 Z" id="Shape"></path>
                    <path d="M95.1505616,50.3275052 C99.7635908,51.2143466 103.589693,53.2258309 107.153756,56.2340355 C108.693138,52.0712944 110.231712,47.907476 111.770017,43.7441962 C108.204877,40.7365303 104.379582,38.7255846 99.7660146,37.8382046 C98.2274405,42.0014843 96.6885971,46.1647641 95.1505616,50.3275052 Z" id="Shape"></path>
                    <path d="M52.4068559,50.7565177 C50.8685511,54.9192589 49.3294384,59.0830772 47.7911336,63.2458184 C52.4884572,64.0033904 57.0756326,63.9990814 61.8149687,63.7087641 C63.3538121,59.5454843 64.8923862,55.3822046 66.4309603,51.2189248 C61.6908163,51.5097808 57.1044489,51.5143591 52.4068559,50.7565177 Z" id="Shape"></path>
                    <path d="M71.0466827,38.7293549 C72.4576033,34.9116013 73.8687933,31.0938476 75.2794447,27.2769019 C70.5395699,27.5677578 65.9526639,27.5720668 61.2556096,26.8144948 C59.8446889,30.6317098 58.4337683,34.4494635 57.0228476,38.2669478 C61.7207098,39.0239812 66.306,39.0194029 71.0466827,38.7293549 Z" id="Shape"></path>
                    <path d="M81.1264572,49.8648288 C79.5878831,54.0275699 78.0490397,58.1908497 76.5104656,62.3535908 C81.2506096,62.0638121 85.8367077,62.0589645 90.5340313,62.8170752 C92.0726054,58.6537954 93.6111795,54.4910543 95.1502923,50.3277745 C90.4524301,49.5699332 85.8666013,49.5750501 81.1264572,49.8648288 Z" id="Shape"></path>
                    <path d="M81.1264572,49.8648288 C82.6650313,45.7015491 84.2036054,41.5382693 85.7421795,37.3755282 C80.8380251,37.7716848 75.9505678,38.3334676 71.0466827,38.7293549 C69.5081086,42.892096 67.9695344,47.0559144 66.4309603,51.2186555 C71.3348455,50.8233069 76.2220334,50.2607161 81.1264572,49.8648288 Z" id="Shape"></path>
                    <path d="M106.837046,14.4172985 C104.395741,13.9966347 101.811701,13.7924969 98.9370752,13.7924969 C94.8292735,13.7924969 90.7459791,14.2126221 86.797071,14.6187432 C86.0139144,14.6992672 85.232643,14.7797912 84.4540647,14.8565449 L83.4290668,14.9580752 C79.8127578,15.3178747 76.0733737,15.6897933 72.4640668,15.6897933 C69.3163591,15.6900626 66.5895846,15.4064781 64.1267349,14.8234196 C57.6729645,13.2958873 52.8784196,9.17892902 49.0377745,1.86659499 C48.4197056,0.689436326 47.1660626,-0.0129269311 45.8397056,0.0727139875 C44.51281,0.158624217 43.3609666,1.01772651 42.8999061,2.26490605 L0.209524008,117.777269 C-0.43493737,119.521328 0.456482255,121.457405 2.2002714,122.101866 C2.58511691,122.244063 2.979119,122.31166 3.36692693,122.31166 C4.73583507,122.31166 6.02260334,121.470332 6.52513779,120.111119 L22.684071,76.3873904 C27.4608413,81.3728768 34.3045741,85.2288727 38.6025094,86.2455219 C41.5805511,86.9500397 44.8155157,87.2928727 48.4926889,87.2928727 C52.4407891,87.2928727 56.353071,86.9037182 60.1363528,86.5266827 L61.1411524,86.4270376 C61.9245783,86.3500146 62.7106973,86.2686827 63.4987015,86.1873507 C67.2822526,85.7979269 71.1942651,85.3953069 74.9603111,85.3953069 C77.4487453,85.3953069 79.6600585,85.5679353 81.7208267,85.9228873 C89.0848685,87.1913424 94.4228831,91.4157557 98.5201816,99.2171587 C99.1382505,100.394048 100.390008,101.094795 101.718251,101.01104 C103.045146,100.925129 104.19699,100.066027 104.65805,98.8188476 L128.632121,33.947737 C128.963104,33.0530856 128.8982,32.0598664 128.454645,31.2153069 C123.373823,21.543 116.302791,16.047977 106.837046,14.4172985 Z M100.693522,90.1227933 C96.0538309,84.1101545 90.1728852,80.5466305 82.8632443,79.2881399 C80.4211315,78.867476 77.8357453,78.6630689 74.9597724,78.6630689 C70.8484697,78.6630689 66.761405,79.0837328 62.8087265,79.4906618 C62.0298789,79.5709165 61.2529165,79.6511712 60.4791858,79.7273862 L59.469,79.8275699 C55.84919,80.1879081 52.1060355,80.5606347 48.4921503,80.5606347 C45.3436347,80.5606347 42.6155136,80.2770501 40.1521253,79.694261 C36.2298789,78.7664843 28.6231879,73.9714008 25.3857996,69.0747871 L46.8587787,10.9738873 C51.064071,16.4551754 56.2510021,19.878119 62.5757724,21.3752192 C65.5532756,22.0800063 68.7877015,22.4228392 72.4640668,22.4225699 C76.4075887,22.4225699 80.3158309,22.0339541 84.0950731,21.6579958 L85.1144154,21.5567349 C85.9024196,21.4791733 86.6928476,21.3978413 87.4859687,21.3159708 C91.2654802,20.9273549 95.174261,20.5247349 98.9368058,20.5247349 C101.424163,20.5247349 103.634668,20.6973633 105.69409,21.0517766 C112.64043,22.2483257 117.784541,26.0749666 121.784349,33.0533549 L100.693522,90.1227933 Z" id="Shape"></path>
                </g>
                <g id="Kart-Kids">
                    <use stroke="#FFFFFF" fill="#FFFFFF" fill-opacity="1" stroke-width="1" stroke-opacity="1" filter="url(#filter-2)" xlink:href="#text-1"></use>
                    <use fill="#FFFFFF" fill-rule="evenodd" xlink:href="#text-1"></use>
                    <use stroke="#FFFFFF" stroke-width="1" xlink:href="#text-1"></use>
                </g>
            </g>
        </g>
    </g>
</svg>